# xmcd
#
# Track frame offsets:
#	150
#	19589
#	35788
#	55742
#	69999
#	86026
#	104030
#	124389
#	150973
#	174677
#	190266
#	212592
#	235650
#	256006
#	279409
#	297786
#	314888
#	332127
#	353474
#	376890
#
# Disc length: 5226
#
# Revision: 2
# Processed by: cddbd v1.5.1PL0 Copyright (c) Steve Scherf et al.
# Submitted via: CDex 1.50beta8
# Normalized: r0:DSETVAR1,TDELIM( - ),TSWAP
#
DISCID=20146814
DTITLE=Various Artist - zitang ;p
DYEAR=2002
DGENRE=Blues
TTITLE0=ronan keating - when you say nothing at all
TTITLE1=westlife - flying without wings
TTITLE2=robbie williams - angels
TTITLE3=sixpence none the richer - kiss me
TTITLE4=backstreet boys - as long as you love me
TTITLE5=wet wet wet - love is all around
TTITLE6=toni braxton - unbreak my heart
TTITLE7=bryan adams - please forgive me
TTITLE8=selena - dreaming of you
TTITLE9=blue - if you come back
TTITLE10=joe - i wanna know
TTITLE11=sinead o'connor - nothing compares 2 u
TTITLE12=michael learns to rocks - you took my heart away
TTITLE13=eric clapton - womderful tonight (live version)
TTITLE14=kate winslet - what if
TTITLE15=janet - again
TTITLE16=babyface - when can i see you
TTITLE17=nsync - this i promise you
TTITLE18=britney spears - from the bottom of my broken heart
TTITLE19=robbie williams - better man
EXTD=YEAR: 2002
EXTT0=
EXTT1=
EXTT2=
EXTT3=
EXTT4=
EXTT5=
EXTT6=
EXTT7=
EXTT8=
EXTT9=
EXTT10=
EXTT11=
EXTT12=
EXTT13=
EXTT14=
EXTT15=
EXTT16=
EXTT17=
EXTT18=
EXTT19=
PLAYORDER=
